<svg width="100" height="60" viewBox="0 0 100 60" fill="none" xmlns="http://www.w3.org/2000/svg">
<rect x="2.5" y="2.5" width="95" height="55" rx="12.5" stroke="white" stroke-width="5"/>
<path d="M19.88 41V19.832H24.632V41H19.88ZM34.4237 41C32.7917 41 31.5917 40.928 30.8237 40.784C30.0557 40.64 29.6717 40.472 29.6717 40.28L31.1117 37.148C31.6637 37.244 33.0317 37.34 35.2157 37.436C37.4237 37.508 40.4477 37.544 44.2877 37.544H44.9717C46.0037 37.544 46.7357 37.364 47.1677 37.004C47.5997 36.62 47.8157 35.984 47.8157 35.096V34.376C47.8157 33.536 47.6357 32.936 47.2757 32.576C46.9397 32.216 46.1717 32.036 44.9717 32.036H36.6197C34.1957 32.036 32.4317 31.592 31.3277 30.704C30.2237 29.792 29.6717 28.316 29.6717 26.276V25.7C29.6717 24.644 29.8637 23.672 30.2477 22.784C30.6557 21.896 31.3397 21.188 32.2997 20.66C33.2597 20.108 34.5797 19.832 36.2597 19.832H46.0517C47.6837 19.832 49.0037 19.916 50.0117 20.084C51.0197 20.252 51.5237 20.432 51.5237 20.624L50.8037 23.648C50.1797 23.576 48.7637 23.504 46.5557 23.432C44.3477 23.336 41.3837 23.288 37.6637 23.288L37.2677 23.252C36.1637 23.252 35.4197 23.48 35.0357 23.936C34.6517 24.368 34.4477 24.92 34.4237 25.592V26.204C34.4237 26.996 34.6397 27.596 35.0717 28.004C35.5277 28.388 36.2717 28.58 37.3037 28.58H45.2957C46.8317 28.58 48.1397 28.736 49.2197 29.048C50.2997 29.36 51.1277 29.936 51.7037 30.776C52.2797 31.592 52.5677 32.804 52.5677 34.412V34.988C52.5677 36.788 52.0997 38.24 51.1637 39.344C50.2517 40.448 48.6557 41 46.3757 41H34.4237ZM61.6347 41C60.0027 41 58.8027 40.928 58.0347 40.784C57.2667 40.64 56.8827 40.472 56.8827 40.28L58.3227 37.148C58.8747 37.244 60.2427 37.34 62.4267 37.436C64.6347 37.508 67.6587 37.544 71.4987 37.544H72.1827C73.2147 37.544 73.9467 37.364 74.3787 37.004C74.8107 36.62 75.0267 35.984 75.0267 35.096V34.376C75.0267 33.536 74.8467 32.936 74.4867 32.576C74.1507 32.216 73.3827 32.036 72.1827 32.036H63.8307C61.4067 32.036 59.6427 31.592 58.5387 30.704C57.4347 29.792 56.8827 28.316 56.8827 26.276V25.7C56.8827 24.644 57.0747 23.672 57.4587 22.784C57.8667 21.896 58.5507 21.188 59.5107 20.66C60.4707 20.108 61.7907 19.832 63.4707 19.832H73.2627C74.8947 19.832 76.2147 19.916 77.2227 20.084C78.2307 20.252 78.7347 20.432 78.7347 20.624L78.0147 23.648C77.3907 23.576 75.9747 23.504 73.7667 23.432C71.5587 23.336 68.5947 23.288 64.8747 23.288L64.4787 23.252C63.3747 23.252 62.6307 23.48 62.2467 23.936C61.8627 24.368 61.6587 24.92 61.6347 25.592V26.204C61.6347 26.996 61.8507 27.596 62.2827 28.004C62.7387 28.388 63.4827 28.58 64.5147 28.58H72.5067C74.0427 28.58 75.3507 28.736 76.4307 29.048C77.5107 29.36 78.3387 29.936 78.9147 30.776C79.4907 31.592 79.7787 32.804 79.7787 34.412V34.988C79.7787 36.788 79.3107 38.24 78.3747 39.344C77.4627 40.448 75.8667 41 73.5867 41H61.6347Z" fill="white"/>
</svg>
